<?xml version="1.0" standalone="no"?>
<!DOCTYPE svg PUBLIC "-//W3C//DTD SVG 20010904//EN"
 "http://www.w3.org/TR/2001/REC-SVG-20010904/DTD/svg10.dtd">
<svg version="1.0" xmlns="http://www.w3.org/2000/svg"
 width="500.000000pt" height="500.000000pt" viewBox="0 0 500.000000 500.000000"
 preserveAspectRatio="xMidYMid meet">

<g transform="translate(0.000000,500.000000) scale(0.100000,-0.100000)"
fill="#000000" stroke="none">
<path d="M3545 3863 c6 -5 35 -28 65 -50 108 -82 225 -212 343 -384 158 -228
190 -391 92 -455 -42 -27 -70 -12 -104 58 -17 33 -31 68 -31 76 0 8 -12 35
-26 60 -32 54 -77 77 -123 61 -41 -14 -51 -35 -51 -106 0 -102 29 -146 203
-312 49 -47 81 -103 97 -169 27 -115 -9 -209 -128 -337 -90 -96 -115 -140
-139 -249 -23 -100 -67 -144 -359 -354 -179 -129 -234 -158 -264 -142 -21 11
-22 17 -17 89 5 81 38 192 122 406 46 118 47 122 42 210 -10 181 -131 417
-305 592 -77 78 -148 119 -283 164 -129 43 -196 79 -262 139 -58 53 -83 103
-72 142 4 13 33 50 65 83 79 82 86 97 66 149 -12 30 -32 53 -74 84 -72 52
-111 119 -93 159 10 21 9 24 -6 19 -10 -3 -40 -10 -67 -16 -130 -28 -180 -51
-225 -102 -65 -73 -84 -80 -214 -76 l-112 2 -100 -42 c-277 -119 -307 -136
-385 -212 -132 -128 -309 -428 -379 -640 -92 -284 -86 -629 18 -1020 83 -308
127 -429 185 -500 100 -124 256 -266 380 -349 101 -67 282 -154 407 -197 57
-19 178 -51 269 -70 150 -32 185 -36 381 -41 241 -7 378 4 559 43 321 68 596
200 825 394 292 249 496 613 573 1025 35 185 42 260 42 445 0 440 -107 821
-323 1145 -76 115 -92 132 -147 156 -70 31 -247 87 -330 104 -41 8 -86 18
-100 21 -15 3 -21 2 -15 -3z m-2249 -1377 c54 -25 92 -67 114 -126 36 -93 66
-139 139 -210 140 -136 244 -322 357 -640 64 -180 125 -268 199 -289 22 -6 72
-11 110 -11 80 -1 130 -16 181 -55 68 -52 94 -132 59 -182 -15 -21 -136 -99
-222 -142 l-42 -21 -63 24 c-355 135 -653 312 -843 501 -144 143 -275 378
-342 612 -35 124 -36 133 -37 305 0 97 2 179 6 183 4 4 51 22 105 41 123 43
203 45 279 10z m2878 -390 c95 -40 127 -227 56 -326 -33 -46 -46 -42 -93 29
-12 19 -27 36 -33 38 -6 2 -30 -12 -53 -31 -70 -59 -151 -72 -166 -26 -4 12 6
54 24 103 19 52 31 102 31 134 0 58 12 68 100 82 81 13 97 12 134 -3z m-406
-469 c2 -10 -17 -45 -41 -80 -70 -98 -181 -182 -230 -175 -27 4 -34 51 -17
113 10 37 18 44 92 84 90 49 168 82 183 77 6 -1 11 -10 13 -19z"/>
<path d="M4180 3645 c0 -2 15 -28 34 -57 221 -347 341 -853 307 -1298 -40
-530 -227 -971 -547 -1285 -154 -152 -287 -245 -477 -334 -302 -143 -582 -203
-952 -204 -237 0 -319 8 -520 53 -360 80 -696 256 -913 479 -23 24 -44 42 -47
40 -8 -9 108 -234 168 -327 70 -105 201 -247 277 -298 25 -17 63 -43 85 -58
22 -15 81 -47 130 -70 487 -232 1164 -291 1695 -147 453 122 809 352 1106 716
198 243 334 566 374 892 41 329 60 757 41 911 -37 298 -131 487 -346 697 -87
85 -188 161 -323 244 -83 51 -92 55 -92 46z"/>
</g>
</svg>
